<?xml version="1.0" standalone="no"?>
<!DOCTYPE svg PUBLIC "-//W3C//DTD SVG 20010904//EN"
 "http://www.w3.org/TR/2001/REC-SVG-20010904/DTD/svg10.dtd">
<svg version="1.0" xmlns="http://www.w3.org/2000/svg"
 width="900.000000pt" height="900.000000pt" viewBox="0 0 900.000000 900.000000"
 preserveAspectRatio="xMidYMid meet">

<g transform="translate(0.000000,900.000000) scale(0.100000,-0.100000)"
fill="#000000" stroke="none">
<path d="M4351 6974 c-80 -21 -144 -60 -205 -124 -182 -191 -182 -489 0 -680
258 -270 684 -125 750 254 59 339 -233 634 -545 550z"/>
<path d="M1175 6927 c-74 -28 -95 -42 -163 -109 -65 -64 -107 -147 -128 -252
-44 -212 64 -435 254 -528 64 -32 72 -33 182 -33 111 0 118 1 184 34 184 90
293 306 258 514 -26 155 -126 293 -260 359 -59 29 -76 33 -166 35 -86 3 -110
0 -161 -20z"/>
<path d="M7505 6917 c-198 -66 -325 -247 -325 -461 0 -147 51 -268 151 -360
290 -269 739 -54 739 354 0 195 -102 365 -267 442 -59 28 -80 33 -163 35 -59
2 -110 -2 -135 -10z"/>
<path d="M734 6038 c-267 -256 -394 -513 -463 -938 -11 -69 -37 -276 -57 -460
-49 -451 -42 -620 31 -746 29 -49 86 -102 118 -108 12 -3 272 -7 577 -11 305
-3 558 -9 562 -13 3 -4 72 -196 153 -427 81 -231 162 -463 180 -515 19 -52 68
-194 110 -315 42 -121 82 -223 88 -227 44 -28 291 -84 407 -94 206 -16 290 47
290 218 0 97 -28 129 -141 162 -90 25 -145 104 -201 288 -22 72 -22 84 -28
763 -5 674 -5 691 -26 735 -12 25 -35 58 -53 73 l-33 27 -403 0 c-292 0 -411
3 -430 12 -24 11 -65 72 -65 98 0 7 969 10 3125 10 2800 0 3125 -2 3125 -15 0
-30 -28 -82 -55 -103 -27 -22 -32 -22 -434 -22 -381 0 -408 -1 -437 -19 -37
-22 -70 -85 -84 -160 -6 -33 -10 -304 -10 -698 l0 -643 -35 -108 c-60 -188
-88 -221 -230 -274 -85 -33 -109 -70 -102 -160 8 -96 35 -151 89 -180 38 -20
56 -23 158 -22 63 0 142 6 175 13 103 22 270 72 281 84 6 7 34 77 62 157 124
352 388 1105 423 1211 l40 116 579 9 578 9 39 31 c84 68 126 203 125 404 0
138 -44 592 -83 850 -53 350 -147 590 -313 799 -61 77 -232 251 -247 251 -4 0
-105 -106 -225 -235 -119 -129 -220 -235 -224 -235 -4 0 -20 30 -35 68 -72
170 -76 177 -86 159 -17 -29 -281 -723 -345 -904 l-18 -53 -137 0 c-153 0
-149 -2 -149 76 l0 44 -462 0 -461 0 4 428 4 427 -72 3 -73 3 0 -491 0 -490
-129 0 -129 0 -55 223 c-108 432 -185 655 -247 717 -78 78 -182 110 -385 117
-232 7 -209 21 -329 -194 -75 -137 -104 -179 -112 -170 -6 6 -57 86 -114 177
-57 91 -106 169 -110 173 -15 18 -414 -59 -480 -93 -190 -97 -322 -417 -347
-837 l-6 -113 -144 0 -143 0 0 500 0 500 -75 0 -75 0 0 -417 c0 -230 0 -424 0
-430 0 -10 -99 -13 -460 -13 l-460 0 0 -70 0 -71 -137 3 -137 3 -71 195 c-110
303 -299 790 -305 790 -3 0 -28 -52 -55 -115 -26 -64 -53 -118 -58 -122 -6 -3
-15 1 -21 9 -27 36 -421 458 -428 458 -5 0 -47 -37 -94 -82z"/>
<path d="M3817 4404 c-31 -7 -71 -21 -89 -30 -98 -51 -138 -175 -108 -335 6
-30 33 -191 60 -359 144 -884 180 -1107 186 -1132 5 -24 2 -28 -23 -34 -112
-27 -186 -125 -168 -221 l6 -33 113 0 c62 0 228 -3 369 -7 l257 -6 0 151 c0
138 -9 214 -110 924 -61 425 -117 800 -125 833 -44 172 -144 268 -277 264 -18
0 -59 -7 -91 -15z"/>
<path d="M4945 4411 c-96 -25 -150 -86 -197 -220 -11 -34 -64 -372 -133 -856
-104 -724 -115 -813 -115 -944 l0 -144 368 8 c256 5 369 11 374 19 12 18 9 84
-6 119 -17 43 -73 90 -130 112 -34 13 -46 23 -46 38 0 19 43 288 187 1157 51
312 64 411 60 470 -4 83 -29 144 -73 179 -62 49 -215 82 -289 62z"/>
</g>
</svg>
