<?xml version="1.0" standalone="no"?>
<!DOCTYPE svg PUBLIC "-//W3C//DTD SVG 20010904//EN"
 "http://www.w3.org/TR/2001/REC-SVG-20010904/DTD/svg10.dtd">
<svg version="1.0" xmlns="http://www.w3.org/2000/svg"
 width="936.000000pt" height="804.000000pt" viewBox="0 0 936.000000 804.000000"
 preserveAspectRatio="xMidYMid meet">

<g transform="translate(0.000000,804.000000) scale(0.100000,-0.100000)"
fill="#000000" stroke="none">
<path d="M0 4020 l0 -4020 4680 0 4680 0 0 4020 0 4020 -4680 0 -4680 0 0
-4020z m4240 3175 c14 -7 41 -18 60 -23 19 -6 64 -22 100 -35 36 -13 160 -59
275 -102 116 -43 239 -89 275 -102 36 -14 83 -31 105 -38 22 -8 69 -25 105
-38 36 -13 160 -59 275 -101 116 -42 224 -83 242 -91 17 -8 37 -15 45 -15 7 0
26 -7 41 -15 15 -8 42 -19 60 -24 18 -6 61 -21 97 -34 36 -13 184 -68 330
-121 146 -53 279 -103 297 -111 17 -8 37 -15 45 -15 7 -1 31 -9 53 -20 22 -11
44 -19 49 -20 29 -1 154 -60 188 -89 53 -46 76 -103 93 -234 8 -60 17 -112 20
-117 3 -4 10 -55 15 -112 6 -56 17 -134 25 -173 7 -38 17 -104 20 -145 4 -41
13 -102 20 -135 7 -33 16 -94 20 -135 4 -41 13 -102 20 -135 7 -33 16 -96 20
-140 3 -44 11 -97 16 -118 6 -21 16 -91 24 -155 8 -65 18 -148 24 -187 5 -38
19 -144 31 -235 11 -91 27 -214 35 -275 15 -108 40 -320 50 -420 13 -136 -18
63 -100 645 -18 129 -131 905 -161 1110 -24 161 -51 354 -79 555 -38 269 -56
335 -107 381 -28 26 -85 56 -159 82 -65 24 -666 244 -759 279 -36 13 -83 30
-105 37 -22 8 -65 24 -95 36 -30 11 -154 57 -275 102 -121 44 -249 91 -285
105 -36 13 -83 30 -105 38 -91 31 -131 46 -150 55 -11 5 -139 53 -285 106
-146 53 -294 107 -330 121 -169 62 -225 73 -275 54 -13 -5 7 -10 60 -14 54 -4
108 -16 165 -38 47 -17 114 -43 150 -56 36 -14 76 -29 90 -33 14 -5 54 -20 90
-33 36 -14 125 -46 197 -73 88 -31 129 -51 120 -57 -8 -5 -5 -6 9 -3 12 4 72
-13 145 -39 172 -63 179 -66 173 -76 -3 -5 2 -6 10 -3 19 7 108 -25 100 -37
-3 -5 2 -6 10 -3 19 7 108 -25 100 -37 -3 -5 2 -6 11 -3 23 9 80 -16 63 -28
-8 -5 -2 -6 16 -2 22 5 27 4 21 -6 -5 -9 -4 -11 4 -6 17 11 224 -66 208 -77
-8 -5 -5 -6 8 -3 19 6 62 -8 255 -81 36 -14 76 -28 90 -33 14 -5 57 -20 95
-35 39 -14 93 -34 120 -44 133 -48 384 -141 419 -156 95 -40 139 -104 156
-227 5 -40 17 -116 25 -168 8 -52 23 -159 34 -238 19 -132 32 -219 81 -557 10
-71 28 -194 39 -273 19 -133 46 -321 71 -492 6 -41 19 -133 30 -205 10 -71 23
-161 29 -200 5 -38 20 -137 31 -220 12 -82 30 -204 40 -270 11 -66 21 -156 23
-200 3 -49 2 -61 -2 -30 l-6 50 -8 -58 c-4 -32 -5 -63 -2 -68 4 -5 1 -9 -4 -9
-6 0 -11 15 -12 33 0 31 -1 31 -10 8 -5 -14 -8 -30 -5 -37 10 -26 -22 -20
-159 29 -449 159 -645 227 -655 227 -6 0 -31 9 -55 20 -25 11 -100 40 -167 64
-118 42 -124 43 -163 29 -45 -16 -107 -14 -112 3 -2 6 6 15 19 19 13 4 31 11
40 14 11 4 -81 41 -235 95 -196 69 -260 87 -288 83 -20 -3 -59 0 -85 5 -27 5
-68 9 -91 9 -23 -1 -45 4 -49 10 -4 7 -29 9 -75 4 -57 -6 -70 -4 -75 8 -12 33
-36 27 -87 -23 -28 -27 -60 -53 -71 -56 -24 -8 -246 -184 -246 -196 0 -4 -29
-31 -65 -60 -36 -29 -68 -62 -71 -74 -5 -18 -14 -23 -48 -26 l-43 -3 8 30 c5
17 31 49 61 75 29 25 75 68 103 95 27 28 64 62 80 76 17 14 35 34 41 45 6 10
20 21 30 22 10 2 28 12 39 21 11 9 32 22 46 28 14 6 48 38 77 71 48 55 50 60
34 74 -34 29 -189 97 -303 132 -122 38 -166 43 -202 25 -31 -16 -188 -132
-277 -204 -41 -34 -122 -96 -180 -140 -162 -121 -242 -188 -233 -194 5 -3 16
-18 26 -34 l18 -27 -36 -17 c-26 -12 -38 -14 -43 -6 -4 6 -19 14 -34 18 -31 8
-57 -9 -358 -235 -107 -80 -215 -160 -240 -176 -125 -84 -176 -122 -300 -225
-74 -61 -226 -185 -337 -276 -112 -91 -203 -167 -203 -170 0 -3 10 -13 22 -24
l23 -18 -24 -1 c-21 0 -22 -2 -10 -18 7 -9 1 -6 -15 8 l-29 25 13 -25 c12 -23
12 -24 -4 -11 -28 24 -47 70 -67 160 -20 97 -24 86 -8 -22 6 -40 21 -90 35
-113 22 -38 22 -54 3 -54 -5 0 -20 23 -35 51 -20 40 -29 80 -39 180 -8 71 -16
132 -19 137 -2 4 -10 66 -16 138 -6 71 -17 161 -25 199 -7 39 -16 114 -20 169
-4 54 -11 112 -16 129 -5 17 -14 89 -20 161 -6 72 -15 147 -20 166 -5 19 -14
89 -19 155 -6 66 -17 156 -25 200 -8 44 -17 122 -21 174 -3 52 -10 108 -15
125 -5 17 -14 87 -20 156 -5 69 -16 157 -24 195 -7 39 -16 114 -20 169 -4 54
-11 112 -16 130 -5 17 -14 85 -20 151 -5 66 -17 158 -25 204 -20 117 -18 158
11 220 28 58 60 92 203 214 51 42 131 110 180 151 160 136 257 217 307 261 28
24 84 72 126 107 41 34 129 108 194 163 65 55 136 115 159 133 22 19 43 37 46
41 5 6 206 176 284 239 22 19 43 37 46 40 3 4 43 38 90 76 47 38 90 75 95 81
6 6 51 44 100 85 50 41 92 78 95 81 9 11 176 146 202 163 53 35 192 35 258 1z
m3087 -3812 c-3 -10 -5 -4 -5 12 0 17 2 24 5 18 2 -7 2 -21 0 -30z m10 -75
c-3 -7 -5 -2 -5 12 0 14 2 19 5 13 2 -7 2 -19 0 -25z"/>
<path d="M4285 7111 c22 -11 47 -20 55 -20 17 0 -34 23 -71 33 -13 3 -6 -3 16
-13z"/>
<path d="M4370 7082 c8 -5 26 -13 40 -16 17 -5 20 -4 10 2 -8 5 -26 13 -40 16
-17 5 -20 4 -10 -2z"/>
<path d="M4510 7030 c8 -5 20 -10 25 -10 6 0 3 5 -5 10 -8 5 -19 10 -25 10 -5
0 -3 -5 5 -10z"/>
<path d="M4620 6990 c8 -5 20 -10 25 -10 6 0 3 5 -5 10 -8 5 -19 10 -25 10 -5
0 -3 -5 5 -10z"/>
<path d="M5920 6510 c8 -5 20 -10 25 -10 6 0 3 5 -5 10 -8 5 -19 10 -25 10 -5
0 -3 -5 5 -10z"/>
<path d="M6000 6482 c13 -8 575 -216 620 -229 13 -4 13 -3 0 5 -13 8 -575 216
-620 229 -13 4 -13 3 0 -5z"/>
<path d="M6640 6246 c0 -2 28 -14 63 -27 78 -29 126 -58 160 -99 15 -17 27
-27 27 -21 0 28 -80 88 -156 119 -79 31 -94 36 -94 28z"/>
<path d="M6896 6055 c3 -16 12 -64 20 -105 l14 -75 -6 62 c-2 34 -11 81 -19
105 -8 24 -12 30 -9 13z"/>
<path d="M6932 5840 c0 -19 2 -27 5 -17 2 9 2 25 0 35 -3 9 -5 1 -5 -18z"/>
<path d="M6942 5780 c-1 -14 3 -43 7 -65 l9 -40 0 35 c0 19 -4 49 -8 65 -7 27
-8 28 -8 5z"/>
<path d="M6962 5640 c0 -19 2 -27 5 -17 2 9 2 25 0 35 -3 9 -5 1 -5 -18z"/>
<path d="M6972 5575 c-1 -16 5 -64 12 -105 8 -41 14 -61 14 -45 0 17 -5 64
-13 105 -7 41 -13 62 -13 45z"/>
<path d="M7002 5360 c0 -19 2 -27 5 -17 2 9 2 25 0 35 -3 9 -5 1 -5 -18z"/>
<path d="M7012 5290 c0 -19 2 -27 5 -17 2 9 2 25 0 35 -3 9 -5 1 -5 -18z"/>
<path d="M7022 5225 c0 -16 5 -64 13 -105 7 -41 13 -61 13 -45 1 17 -5 64 -12
105 -8 41 -14 62 -14 45z"/>
<path d="M7052 5010 c0 -19 2 -27 5 -17 2 9 2 25 0 35 -3 9 -5 1 -5 -18z"/>
<path d="M7062 4950 c0 -14 6 -61 13 -105 l14 -80 -5 70 c-6 77 -22 159 -22
115z"/>
<path d="M7092 4740 c-1 -14 5 -59 12 -100 8 -41 14 -61 14 -45 0 17 -5 62
-12 100 -8 39 -14 59 -14 45z"/>
<path d="M7122 4530 c0 -19 2 -27 5 -17 2 9 2 25 0 35 -3 9 -5 1 -5 -18z"/>
<path d="M7132 4460 c0 -19 2 -27 5 -17 2 9 2 25 0 35 -3 9 -5 1 -5 -18z"/>
<path d="M7142 4395 c-1 -16 3 -48 7 -70 8 -35 9 -36 9 -10 1 17 -3 48 -7 70
-8 35 -9 36 -9 10z"/>
<path d="M7162 4250 c0 -19 2 -27 5 -17 2 9 2 25 0 35 -3 9 -5 1 -5 -18z"/>
<path d="M7172 4180 c0 -19 2 -27 5 -17 2 9 2 25 0 35 -3 9 -5 1 -5 -18z"/>
<path d="M7182 4120 c0 -14 6 -61 13 -105 l14 -80 -5 70 c-6 77 -22 159 -22
115z"/>
<path d="M7212 3910 c-1 -14 5 -59 12 -100 8 -41 14 -61 14 -45 0 17 -5 62
-12 100 -8 39 -14 59 -14 45z"/>
<path d="M7242 3700 c0 -19 2 -27 5 -17 2 9 2 25 0 35 -3 9 -5 1 -5 -18z"/>
<path d="M7248 3630 c-3 -16 -1 -30 4 -30 4 0 8 14 8 30 0 17 -2 30 -4 30 -2
0 -6 -13 -8 -30z"/>
<path d="M7261 3575 c-1 -11 -4 -31 -8 -44 -5 -18 -3 -22 7 -16 10 6 12 -2 7
-41 -5 -41 -4 -44 5 -21 7 19 7 47 0 85 -5 31 -10 48 -11 37z"/>
<path d="M7276 3411 c-4 -24 -5 -46 -2 -48 7 -7 19 63 14 79 -3 7 -8 -7 -12
-31z"/>
<path d="M7285 3335 c-3 -26 -4 -49 -2 -52 3 -3 9 16 12 42 4 25 5 48 2 51 -2
3 -8 -16 -12 -41z"/>
<path d="M7297 3275 c-9 -56 -7 -89 4 -50 6 21 7 9 4 -40 -4 -70 -4 -70 6 -19
6 30 7 71 1 100 l-8 49 -7 -40z"/>
<path d="M2181 2604 c0 -11 3 -14 6 -6 3 7 2 16 -1 19 -3 4 -6 -2 -5 -13z"/>
<path d="M2191 2514 c0 -11 3 -14 6 -6 3 7 2 16 -1 19 -3 4 -6 -2 -5 -13z"/>
<path d="M2202 2450 c0 -14 2 -19 5 -12 2 6 2 18 0 25 -3 6 -5 1 -5 -13z"/>
</g>
</svg>
